<mxfile host="app.diagrams.net" agent="Mozilla/5.0 (Windows NT 10.0; Win64; x64) AppleWebKit/537.36 (KHTML, like Gecko) Chrome/129.0.0.0 Safari/537.36" version="24.7.17">
  <diagram name="Page-1" id="c7488fd3-1785-93aa-aadb-54a6760d102a">
    <mxGraphModel dx="1562" dy="810" grid="1" gridSize="10" guides="1" tooltips="1" connect="1" arrows="1" fold="1" page="1" pageScale="1" pageWidth="1100" pageHeight="850" background="none" math="0" shadow="0">
      <root>
        <mxCell id="0" />
        <mxCell id="1" parent="0" />
        <mxCell id="2b4e8129b02d487f-1" value="Общая схема процесса" style="swimlane;html=1;childLayout=stackLayout;horizontal=1;startSize=20;horizontalStack=0;rounded=0;shadow=0;labelBackgroundColor=none;strokeWidth=1;fontFamily=Verdana;fontSize=8;align=center;" parent="1" vertex="1">
          <mxGeometry x="160" y="175" width="1240" height="650" as="geometry">
            <mxRectangle x="180" y="70" width="60" height="20" as="alternateBounds" />
          </mxGeometry>
        </mxCell>
        <mxCell id="2b4e8129b02d487f-2" value="Артефакты" style="swimlane;html=1;startSize=20;horizontal=0;" parent="2b4e8129b02d487f-1" vertex="1">
          <mxGeometry y="20" width="1240" height="150" as="geometry">
            <mxRectangle y="20" width="680" height="30" as="alternateBounds" />
          </mxGeometry>
        </mxCell>
        <mxCell id="6NKQM4wuEK_9R2oRbHEW-5" value="Система прав доступа" style="shape=cylinder3;whiteSpace=wrap;html=1;boundedLbl=1;backgroundOutline=1;size=10.4000244140625;" parent="2b4e8129b02d487f-2" vertex="1">
          <mxGeometry x="110" y="35" width="90" height="50" as="geometry" />
        </mxCell>
        <mxCell id="6NKQM4wuEK_9R2oRbHEW-7" value="ERP" style="shape=cylinder3;whiteSpace=wrap;html=1;boundedLbl=1;backgroundOutline=1;size=10.4000244140625;" parent="2b4e8129b02d487f-2" vertex="1">
          <mxGeometry x="220" y="35" width="70" height="50" as="geometry" />
        </mxCell>
        <mxCell id="6NKQM4wuEK_9R2oRbHEW-11" value="Инструкция по макросу" style="shape=document;whiteSpace=wrap;html=1;boundedLbl=1;" parent="2b4e8129b02d487f-2" vertex="1">
          <mxGeometry x="320" y="43" width="68.25" height="45.5" as="geometry" />
        </mxCell>
        <mxCell id="6NKQM4wuEK_9R2oRbHEW-15" value="Макрос" style="shape=cylinder3;whiteSpace=wrap;html=1;boundedLbl=1;backgroundOutline=1;size=10.4000244140625;" parent="2b4e8129b02d487f-2" vertex="1">
          <mxGeometry x="420" y="40.75" width="70" height="50" as="geometry" />
        </mxCell>
        <mxCell id="2b4e8129b02d487f-3" value="Руководитель отдела" style="swimlane;html=1;startSize=20;horizontal=0;" parent="2b4e8129b02d487f-1" vertex="1">
          <mxGeometry y="170" width="1240" height="180" as="geometry" />
        </mxCell>
        <mxCell id="6NKQM4wuEK_9R2oRbHEW-14" value="Создание таблицы" style="rounded=1;whiteSpace=wrap;html=1;shadow=0;labelBackgroundColor=none;strokeWidth=1;fontFamily=Verdana;fontSize=8;align=center;" parent="2b4e8129b02d487f-3" vertex="1">
          <mxGeometry x="420" y="76.5" width="70" height="37" as="geometry" />
        </mxCell>
        <mxCell id="2b4e8129b02d487f-9" value="Загрузка датасета в макрос" style="rounded=1;whiteSpace=wrap;html=1;shadow=0;labelBackgroundColor=none;strokeWidth=1;fontFamily=Verdana;fontSize=8;align=center;" parent="2b4e8129b02d487f-3" vertex="1">
          <mxGeometry x="320" y="76.5" width="70" height="37" as="geometry" />
        </mxCell>
        <mxCell id="2b4e8129b02d487f-7" value="Получение датасета" style="rounded=1;whiteSpace=wrap;html=1;shadow=0;labelBackgroundColor=none;strokeWidth=1;fontFamily=Verdana;fontSize=8;align=center;" parent="2b4e8129b02d487f-3" vertex="1">
          <mxGeometry x="220" y="76.5" width="70" height="37" as="geometry" />
        </mxCell>
        <mxCell id="2b4e8129b02d487f-6" value="Запрос на получение данных" style="rounded=1;whiteSpace=wrap;html=1;shadow=0;labelBackgroundColor=none;strokeWidth=1;fontFamily=Verdana;fontSize=8;align=center;" parent="2b4e8129b02d487f-3" vertex="1">
          <mxGeometry x="120" y="76.5" width="70" height="37" as="geometry" />
        </mxCell>
        <mxCell id="2b4e8129b02d487f-5" value="" style="ellipse;whiteSpace=wrap;html=1;rounded=0;shadow=0;labelBackgroundColor=none;strokeWidth=1;fontFamily=Verdana;fontSize=8;align=center;" parent="2b4e8129b02d487f-3" vertex="1">
          <mxGeometry x="60" y="80" width="30" height="30" as="geometry" />
        </mxCell>
        <mxCell id="9YEg7d44lWTVzZF0jKLb-2" style="edgeStyle=orthogonalEdgeStyle;rounded=0;orthogonalLoop=1;jettySize=auto;html=1;" edge="1" parent="2b4e8129b02d487f-3" source="2b4e8129b02d487f-9" target="6NKQM4wuEK_9R2oRbHEW-14">
          <mxGeometry relative="1" as="geometry" />
        </mxCell>
        <mxCell id="6NKQM4wuEK_9R2oRbHEW-13" style="edgeStyle=orthogonalEdgeStyle;rounded=0;orthogonalLoop=1;jettySize=auto;html=1;entryX=0;entryY=0.5;entryDx=0;entryDy=0;" parent="2b4e8129b02d487f-3" source="2b4e8129b02d487f-7" target="2b4e8129b02d487f-9" edge="1">
          <mxGeometry relative="1" as="geometry" />
        </mxCell>
        <mxCell id="6NKQM4wuEK_9R2oRbHEW-9" style="edgeStyle=orthogonalEdgeStyle;rounded=0;orthogonalLoop=1;jettySize=auto;html=1;" parent="2b4e8129b02d487f-3" source="2b4e8129b02d487f-6" target="2b4e8129b02d487f-7" edge="1">
          <mxGeometry relative="1" as="geometry" />
        </mxCell>
        <mxCell id="2b4e8129b02d487f-18" style="edgeStyle=orthogonalEdgeStyle;rounded=0;html=1;labelBackgroundColor=none;startArrow=none;startFill=0;startSize=5;endArrow=classicThin;endFill=1;endSize=5;jettySize=auto;orthogonalLoop=1;strokeWidth=1;fontFamily=Verdana;fontSize=8" parent="2b4e8129b02d487f-3" source="2b4e8129b02d487f-5" target="2b4e8129b02d487f-6" edge="1">
          <mxGeometry relative="1" as="geometry" />
        </mxCell>
        <mxCell id="6NKQM4wuEK_9R2oRbHEW-2" value="Начало" style="text;html=1;align=center;verticalAlign=middle;whiteSpace=wrap;rounded=0;" parent="2b4e8129b02d487f-3" vertex="1">
          <mxGeometry x="45" y="45" width="60" height="30" as="geometry" />
        </mxCell>
        <mxCell id="2b4e8129b02d487f-12" value="Анализ таблицы - сравнение" style="rounded=1;whiteSpace=wrap;html=1;shadow=0;labelBackgroundColor=none;strokeWidth=1;fontFamily=Verdana;fontSize=8;align=center;" parent="2b4e8129b02d487f-3" vertex="1">
          <mxGeometry x="520" y="76.49999999999994" width="70" height="37" as="geometry" />
        </mxCell>
        <mxCell id="9YEg7d44lWTVzZF0jKLb-15" style="edgeStyle=orthogonalEdgeStyle;rounded=0;orthogonalLoop=1;jettySize=auto;html=1;entryX=0;entryY=0.5;entryDx=0;entryDy=0;" edge="1" parent="2b4e8129b02d487f-3" source="6NKQM4wuEK_9R2oRbHEW-14" target="2b4e8129b02d487f-12">
          <mxGeometry relative="1" as="geometry" />
        </mxCell>
        <mxCell id="9YEg7d44lWTVzZF0jKLb-57" style="edgeStyle=orthogonalEdgeStyle;rounded=0;orthogonalLoop=1;jettySize=auto;html=1;entryX=0;entryY=0.5;entryDx=0;entryDy=0;dashed=1;" edge="1" parent="2b4e8129b02d487f-3" source="9YEg7d44lWTVzZF0jKLb-34" target="9YEg7d44lWTVzZF0jKLb-41">
          <mxGeometry relative="1" as="geometry" />
        </mxCell>
        <mxCell id="9YEg7d44lWTVzZF0jKLb-34" value="Аккумуляция обратной связи" style="rounded=1;whiteSpace=wrap;html=1;shadow=0;labelBackgroundColor=none;strokeWidth=1;fontFamily=Verdana;fontSize=8;align=center;" vertex="1" parent="2b4e8129b02d487f-3">
          <mxGeometry x="840" y="76.49999999999994" width="70" height="37" as="geometry" />
        </mxCell>
        <mxCell id="9YEg7d44lWTVzZF0jKLb-54" style="edgeStyle=orthogonalEdgeStyle;rounded=0;orthogonalLoop=1;jettySize=auto;html=1;entryX=0;entryY=0.5;entryDx=0;entryDy=0;" edge="1" parent="2b4e8129b02d487f-3" source="9YEg7d44lWTVzZF0jKLb-41" target="2b4e8129b02d487f-11">
          <mxGeometry relative="1" as="geometry" />
        </mxCell>
        <mxCell id="9YEg7d44lWTVzZF0jKLb-41" value="Анализ отчетности" style="rounded=1;whiteSpace=wrap;html=1;shadow=0;labelBackgroundColor=none;strokeWidth=1;fontFamily=Verdana;fontSize=8;align=center;" vertex="1" parent="2b4e8129b02d487f-3">
          <mxGeometry x="960" y="76.5" width="180" height="37" as="geometry" />
        </mxCell>
        <mxCell id="2b4e8129b02d487f-11" value="" style="ellipse;whiteSpace=wrap;html=1;rounded=0;shadow=0;labelBackgroundColor=none;strokeWidth=2;fontFamily=Verdana;fontSize=8;align=center;" parent="2b4e8129b02d487f-3" vertex="1">
          <mxGeometry x="1180" y="80" width="30" height="30" as="geometry" />
        </mxCell>
        <mxCell id="9YEg7d44lWTVzZF0jKLb-53" value="Начало следующего цикла" style="text;html=1;align=center;verticalAlign=middle;whiteSpace=wrap;rounded=0;" vertex="1" parent="2b4e8129b02d487f-3">
          <mxGeometry x="1165" y="35" width="60" height="30" as="geometry" />
        </mxCell>
        <mxCell id="9YEg7d44lWTVzZF0jKLb-1" style="edgeStyle=orthogonalEdgeStyle;rounded=0;orthogonalLoop=1;jettySize=auto;html=1;entryX=0.5;entryY=0;entryDx=0;entryDy=0;dashed=1;" edge="1" parent="2b4e8129b02d487f-1" source="6NKQM4wuEK_9R2oRbHEW-15" target="6NKQM4wuEK_9R2oRbHEW-14">
          <mxGeometry relative="1" as="geometry" />
        </mxCell>
        <mxCell id="6NKQM4wuEK_9R2oRbHEW-12" style="edgeStyle=orthogonalEdgeStyle;rounded=0;orthogonalLoop=1;jettySize=auto;html=1;entryX=0.5;entryY=0;entryDx=0;entryDy=0;dashed=1;" parent="2b4e8129b02d487f-1" source="6NKQM4wuEK_9R2oRbHEW-11" target="2b4e8129b02d487f-9" edge="1">
          <mxGeometry relative="1" as="geometry" />
        </mxCell>
        <mxCell id="6NKQM4wuEK_9R2oRbHEW-8" style="edgeStyle=orthogonalEdgeStyle;rounded=0;orthogonalLoop=1;jettySize=auto;html=1;entryX=0.5;entryY=0;entryDx=0;entryDy=0;dashed=1;" parent="2b4e8129b02d487f-1" source="6NKQM4wuEK_9R2oRbHEW-7" target="2b4e8129b02d487f-7" edge="1">
          <mxGeometry relative="1" as="geometry" />
        </mxCell>
        <mxCell id="6NKQM4wuEK_9R2oRbHEW-6" style="edgeStyle=orthogonalEdgeStyle;rounded=0;orthogonalLoop=1;jettySize=auto;html=1;entryX=0.5;entryY=0;entryDx=0;entryDy=0;dashed=1;" parent="2b4e8129b02d487f-1" source="6NKQM4wuEK_9R2oRbHEW-5" target="2b4e8129b02d487f-6" edge="1">
          <mxGeometry relative="1" as="geometry" />
        </mxCell>
        <mxCell id="2b4e8129b02d487f-4" value="Менеджер" style="swimlane;html=1;startSize=20;horizontal=0;" parent="2b4e8129b02d487f-1" vertex="1">
          <mxGeometry y="350" width="1240" height="150" as="geometry" />
        </mxCell>
        <mxCell id="9YEg7d44lWTVzZF0jKLb-27" style="edgeStyle=orthogonalEdgeStyle;rounded=0;orthogonalLoop=1;jettySize=auto;html=1;" edge="1" parent="2b4e8129b02d487f-4" source="9YEg7d44lWTVzZF0jKLb-17" target="9YEg7d44lWTVzZF0jKLb-26">
          <mxGeometry relative="1" as="geometry" />
        </mxCell>
        <mxCell id="9YEg7d44lWTVzZF0jKLb-17" value="Список артикулов с низкими продажами" style="rounded=1;whiteSpace=wrap;html=1;shadow=0;labelBackgroundColor=none;strokeWidth=1;fontFamily=Verdana;fontSize=8;align=center;" vertex="1" parent="2b4e8129b02d487f-4">
          <mxGeometry x="580" y="27" width="90" height="37" as="geometry" />
        </mxCell>
        <mxCell id="9YEg7d44lWTVzZF0jKLb-29" style="edgeStyle=orthogonalEdgeStyle;rounded=0;orthogonalLoop=1;jettySize=auto;html=1;entryX=0;entryY=0.5;entryDx=0;entryDy=0;" edge="1" parent="2b4e8129b02d487f-4" source="9YEg7d44lWTVzZF0jKLb-20" target="9YEg7d44lWTVzZF0jKLb-26">
          <mxGeometry relative="1" as="geometry" />
        </mxCell>
        <mxCell id="9YEg7d44lWTVzZF0jKLb-20" value="Список артикулов с 0 продажами" style="rounded=1;whiteSpace=wrap;html=1;shadow=0;labelBackgroundColor=none;strokeWidth=1;fontFamily=Verdana;fontSize=8;align=center;" vertex="1" parent="2b4e8129b02d487f-4">
          <mxGeometry x="580" y="83.5" width="90" height="37" as="geometry" />
        </mxCell>
        <mxCell id="9YEg7d44lWTVzZF0jKLb-33" style="edgeStyle=orthogonalEdgeStyle;rounded=0;orthogonalLoop=1;jettySize=auto;html=1;" edge="1" parent="2b4e8129b02d487f-4" source="9YEg7d44lWTVzZF0jKLb-26" target="9YEg7d44lWTVzZF0jKLb-32">
          <mxGeometry relative="1" as="geometry" />
        </mxCell>
        <mxCell id="9YEg7d44lWTVzZF0jKLb-26" value="Отработка 100% клиентов в течение месяца" style="rounded=1;whiteSpace=wrap;html=1;shadow=0;labelBackgroundColor=none;strokeWidth=1;fontFamily=Verdana;fontSize=8;align=center;" vertex="1" parent="2b4e8129b02d487f-4">
          <mxGeometry x="710" y="56.5" width="90" height="37" as="geometry" />
        </mxCell>
        <mxCell id="9YEg7d44lWTVzZF0jKLb-39" style="edgeStyle=orthogonalEdgeStyle;rounded=0;orthogonalLoop=1;jettySize=auto;html=1;dashed=1;" edge="1" parent="2b4e8129b02d487f-4" source="9YEg7d44lWTVzZF0jKLb-32">
          <mxGeometry relative="1" as="geometry">
            <mxPoint x="875" y="-65" as="targetPoint" />
          </mxGeometry>
        </mxCell>
        <mxCell id="9YEg7d44lWTVzZF0jKLb-32" value="Обратная связь еженедельно" style="rounded=1;whiteSpace=wrap;html=1;shadow=0;labelBackgroundColor=none;strokeWidth=1;fontFamily=Verdana;fontSize=8;align=center;" vertex="1" parent="2b4e8129b02d487f-4">
          <mxGeometry x="840" y="56.5" width="70" height="37" as="geometry" />
        </mxCell>
        <mxCell id="9YEg7d44lWTVzZF0jKLb-55" value="Действия по обратной связи" style="rounded=1;whiteSpace=wrap;html=1;shadow=0;labelBackgroundColor=none;strokeWidth=1;fontFamily=Verdana;fontSize=8;align=center;" vertex="1" parent="2b4e8129b02d487f-4">
          <mxGeometry x="1140" y="56.5" width="70" height="37" as="geometry" />
        </mxCell>
        <mxCell id="9YEg7d44lWTVzZF0jKLb-7" value="Аналитик" style="swimlane;html=1;startSize=20;horizontal=0;" vertex="1" parent="2b4e8129b02d487f-1">
          <mxGeometry y="500" width="1240" height="150" as="geometry" />
        </mxCell>
        <mxCell id="2b4e8129b02d487f-14" value="Помощь с выгрузкой по необходимости" style="rounded=1;whiteSpace=wrap;html=1;shadow=0;labelBackgroundColor=none;strokeWidth=1;fontFamily=Verdana;fontSize=8;align=center;" parent="9YEg7d44lWTVzZF0jKLb-7" vertex="1">
          <mxGeometry x="220" y="56.5" width="70" height="37" as="geometry" />
        </mxCell>
        <mxCell id="9YEg7d44lWTVzZF0jKLb-40" style="edgeStyle=orthogonalEdgeStyle;rounded=0;orthogonalLoop=1;jettySize=auto;html=1;entryX=0;entryY=0.5;entryDx=0;entryDy=0;" edge="1" parent="9YEg7d44lWTVzZF0jKLb-7" source="9YEg7d44lWTVzZF0jKLb-36" target="9YEg7d44lWTVzZF0jKLb-37">
          <mxGeometry relative="1" as="geometry" />
        </mxCell>
        <mxCell id="9YEg7d44lWTVzZF0jKLb-36" value="Выгрузка данных еженедельно" style="rounded=1;whiteSpace=wrap;html=1;shadow=0;labelBackgroundColor=none;strokeWidth=1;fontFamily=Verdana;fontSize=8;align=center;" vertex="1" parent="9YEg7d44lWTVzZF0jKLb-7">
          <mxGeometry x="840" y="56.5" width="70" height="37" as="geometry" />
        </mxCell>
        <mxCell id="9YEg7d44lWTVzZF0jKLb-50" style="edgeStyle=orthogonalEdgeStyle;rounded=0;orthogonalLoop=1;jettySize=auto;html=1;" edge="1" parent="9YEg7d44lWTVzZF0jKLb-7" source="9YEg7d44lWTVzZF0jKLb-37" target="9YEg7d44lWTVzZF0jKLb-49">
          <mxGeometry relative="1" as="geometry" />
        </mxCell>
        <mxCell id="9YEg7d44lWTVzZF0jKLb-37" value="Отчет по динамике - неделя" style="rounded=1;whiteSpace=wrap;html=1;shadow=0;labelBackgroundColor=none;strokeWidth=1;fontFamily=Verdana;fontSize=8;align=center;" vertex="1" parent="9YEg7d44lWTVzZF0jKLb-7">
          <mxGeometry x="960" y="56.5" width="70" height="37" as="geometry" />
        </mxCell>
        <mxCell id="9YEg7d44lWTVzZF0jKLb-59" style="edgeStyle=orthogonalEdgeStyle;rounded=0;orthogonalLoop=1;jettySize=auto;html=1;" edge="1" parent="9YEg7d44lWTVzZF0jKLb-7" source="9YEg7d44lWTVzZF0jKLb-45" target="9YEg7d44lWTVzZF0jKLb-58">
          <mxGeometry relative="1" as="geometry" />
        </mxCell>
        <mxCell id="9YEg7d44lWTVzZF0jKLb-45" value="Сбор информации об ошибках" style="rounded=1;whiteSpace=wrap;html=1;shadow=0;labelBackgroundColor=none;strokeWidth=1;fontFamily=Verdana;fontSize=8;align=center;" vertex="1" parent="9YEg7d44lWTVzZF0jKLb-7">
          <mxGeometry x="320" y="56.5" width="170" height="37" as="geometry" />
        </mxCell>
        <mxCell id="9YEg7d44lWTVzZF0jKLb-49" value="Отчет по динамике - месяц" style="rounded=1;whiteSpace=wrap;html=1;shadow=0;labelBackgroundColor=none;strokeWidth=1;fontFamily=Verdana;fontSize=8;align=center;" vertex="1" parent="9YEg7d44lWTVzZF0jKLb-7">
          <mxGeometry x="1070" y="56.5" width="70" height="37" as="geometry" />
        </mxCell>
        <mxCell id="9YEg7d44lWTVzZF0jKLb-58" value="Отчет об ошибках" style="shape=document;whiteSpace=wrap;html=1;boundedLbl=1;" vertex="1" parent="9YEg7d44lWTVzZF0jKLb-7">
          <mxGeometry x="571.25" y="42.5" width="97.5" height="65" as="geometry" />
        </mxCell>
        <mxCell id="9YEg7d44lWTVzZF0jKLb-21" style="edgeStyle=orthogonalEdgeStyle;rounded=0;orthogonalLoop=1;jettySize=auto;html=1;entryX=0;entryY=0.5;entryDx=0;entryDy=0;" edge="1" parent="2b4e8129b02d487f-1" source="2b4e8129b02d487f-12" target="9YEg7d44lWTVzZF0jKLb-17">
          <mxGeometry relative="1" as="geometry" />
        </mxCell>
        <mxCell id="9YEg7d44lWTVzZF0jKLb-22" style="edgeStyle=orthogonalEdgeStyle;rounded=0;orthogonalLoop=1;jettySize=auto;html=1;entryX=0;entryY=0.5;entryDx=0;entryDy=0;" edge="1" parent="2b4e8129b02d487f-1" source="2b4e8129b02d487f-12" target="9YEg7d44lWTVzZF0jKLb-20">
          <mxGeometry relative="1" as="geometry" />
        </mxCell>
        <mxCell id="9YEg7d44lWTVzZF0jKLb-38" style="edgeStyle=orthogonalEdgeStyle;rounded=0;orthogonalLoop=1;jettySize=auto;html=1;entryX=0.5;entryY=0;entryDx=0;entryDy=0;" edge="1" parent="2b4e8129b02d487f-1" source="9YEg7d44lWTVzZF0jKLb-32" target="9YEg7d44lWTVzZF0jKLb-36">
          <mxGeometry relative="1" as="geometry" />
        </mxCell>
        <mxCell id="9YEg7d44lWTVzZF0jKLb-42" style="edgeStyle=orthogonalEdgeStyle;rounded=0;orthogonalLoop=1;jettySize=auto;html=1;" edge="1" parent="2b4e8129b02d487f-1" source="9YEg7d44lWTVzZF0jKLb-37" target="9YEg7d44lWTVzZF0jKLb-41">
          <mxGeometry relative="1" as="geometry">
            <Array as="points">
              <mxPoint x="995" y="355" />
              <mxPoint x="995" y="355" />
            </Array>
          </mxGeometry>
        </mxCell>
        <mxCell id="9YEg7d44lWTVzZF0jKLb-44" style="edgeStyle=orthogonalEdgeStyle;rounded=0;orthogonalLoop=1;jettySize=auto;html=1;entryX=0.5;entryY=1;entryDx=0;entryDy=0;dashed=1;" edge="1" parent="2b4e8129b02d487f-1" source="2b4e8129b02d487f-14" target="2b4e8129b02d487f-7">
          <mxGeometry relative="1" as="geometry" />
        </mxCell>
        <mxCell id="9YEg7d44lWTVzZF0jKLb-46" style="edgeStyle=orthogonalEdgeStyle;rounded=0;orthogonalLoop=1;jettySize=auto;html=1;entryX=0.205;entryY=0.046;entryDx=0;entryDy=0;entryPerimeter=0;dashed=1;" edge="1" parent="2b4e8129b02d487f-1" source="2b4e8129b02d487f-9" target="9YEg7d44lWTVzZF0jKLb-45">
          <mxGeometry relative="1" as="geometry" />
        </mxCell>
        <mxCell id="9YEg7d44lWTVzZF0jKLb-47" style="edgeStyle=orthogonalEdgeStyle;rounded=0;orthogonalLoop=1;jettySize=auto;html=1;entryX=0.798;entryY=0.068;entryDx=0;entryDy=0;entryPerimeter=0;dashed=1;" edge="1" parent="2b4e8129b02d487f-1" source="6NKQM4wuEK_9R2oRbHEW-14" target="9YEg7d44lWTVzZF0jKLb-45">
          <mxGeometry relative="1" as="geometry" />
        </mxCell>
        <mxCell id="9YEg7d44lWTVzZF0jKLb-51" style="edgeStyle=orthogonalEdgeStyle;rounded=0;orthogonalLoop=1;jettySize=auto;html=1;entryX=0.807;entryY=0.986;entryDx=0;entryDy=0;entryPerimeter=0;" edge="1" parent="2b4e8129b02d487f-1" source="9YEg7d44lWTVzZF0jKLb-49" target="9YEg7d44lWTVzZF0jKLb-41">
          <mxGeometry relative="1" as="geometry" />
        </mxCell>
        <mxCell id="9YEg7d44lWTVzZF0jKLb-56" style="edgeStyle=orthogonalEdgeStyle;rounded=0;orthogonalLoop=1;jettySize=auto;html=1;entryX=0.5;entryY=0;entryDx=0;entryDy=0;dashed=1;" edge="1" parent="2b4e8129b02d487f-1" source="9YEg7d44lWTVzZF0jKLb-41" target="9YEg7d44lWTVzZF0jKLb-55">
          <mxGeometry relative="1" as="geometry">
            <Array as="points">
              <mxPoint x="1050" y="385" />
              <mxPoint x="1175" y="385" />
            </Array>
          </mxGeometry>
        </mxCell>
        <mxCell id="6NKQM4wuEK_9R2oRbHEW-1" value="&lt;font style=&quot;font-size: 16px;&quot;&gt;&lt;b&gt;Бизнес-процесс: Анализ уникальных артикулов&lt;/b&gt;&lt;/font&gt;" style="text;html=1;align=center;verticalAlign=middle;whiteSpace=wrap;rounded=0;" parent="1" vertex="1">
          <mxGeometry x="160" y="145" width="450" height="30" as="geometry" />
        </mxCell>
      </root>
    </mxGraphModel>
  </diagram>
</mxfile>
